<svg width="43" height="42" viewBox="0 0 43 42" fill="none" xmlns="http://www.w3.org/2000/svg">
<path d="M36.0903 6.16372C34.1716 4.22622 31.8864 2.68998 29.368 1.64452C26.8495 0.599062 24.1482 0.0652978 21.4214 0.0743315C9.99595 0.0743315 0.684008 9.38628 0.684008 20.8117C0.684008 24.4737 1.64659 28.0311 3.4462 31.17L0.516602 41.9258L11.5026 39.038C14.5368 40.6912 17.9477 41.57 21.4214 41.57C32.8468 41.57 42.1588 32.2581 42.1588 20.8326C42.1588 15.2873 40.0034 10.0768 36.0903 6.16372ZM21.4214 38.0545C18.3244 38.0545 15.2902 37.2175 12.6326 35.6481L12.0048 35.2714L5.476 36.9873L7.21283 30.6259L6.79432 29.9772C5.07328 27.2298 4.15961 24.0537 4.15768 20.8117C4.15768 11.3114 11.9002 3.56893 21.4005 3.56893C26.0041 3.56893 30.3358 5.36854 33.5792 8.63295C35.1855 10.2314 36.4585 12.1329 37.3242 14.2271C38.1899 16.3213 38.6311 18.5666 38.6223 20.8326C38.6642 30.3329 30.9217 38.0545 21.4214 38.0545ZM30.8798 25.1643C30.3567 24.9132 27.8037 23.6576 27.3434 23.4693C26.8621 23.3019 26.5273 23.2182 26.1715 23.7204C25.8158 24.2435 24.8323 25.4154 24.5393 25.7502C24.2464 26.1059 23.9325 26.1478 23.4093 25.8757C22.8862 25.6246 21.2121 25.0596 19.2451 23.3019C17.6966 21.9208 16.6713 20.2258 16.3574 19.7027C16.0644 19.1795 16.3155 18.9075 16.5876 18.6354C16.8177 18.4053 17.1107 18.0286 17.3618 17.7356C17.6129 17.4427 17.7175 17.2125 17.8849 16.8777C18.0524 16.5219 17.9687 16.229 17.8431 15.9779C17.7175 15.7268 16.6713 13.1738 16.2527 12.1275C15.8342 11.1231 15.3948 11.2487 15.0809 11.2277H14.0765C13.7207 11.2277 13.1767 11.3533 12.6954 11.8764C12.235 12.3996 10.8958 13.6551 10.8958 16.2081C10.8958 18.761 12.7581 21.2302 13.0093 21.565C13.2604 21.9208 16.6713 27.1522 21.8608 29.3913C23.0955 29.9353 24.058 30.2492 24.8114 30.4794C26.046 30.877 27.176 30.8142 28.0758 30.6887C29.0802 30.5422 31.1519 29.4331 31.5704 28.2194C32.0098 27.0057 32.0098 25.9804 31.8633 25.7502C31.7169 25.52 31.403 25.4154 30.8798 25.1643Z" fill="#A20303"/>
</svg>
